<?xml version="1.0" encoding="UTF-8"?>
<svg width="320px" height="64px" viewBox="0 0 320 64" version="1.1" xmlns="http://www.w3.org/2000/svg" xmlns:xlink="http://www.w3.org/1999/xlink">
    <title>encora-white</title>
    <g id="Encora-Announcements" stroke="none" stroke-width="1" fill="none" fill-rule="evenodd">
        <g id="Sooryen---Encora-Announcement---Desktop" transform="translate(-496.000000, -336.000000)" fill-rule="nonzero">
            <g id="Group-15" transform="translate(424.000000, 246.000000)">
                <g id="encora-white" transform="translate(72.000000, 90.000000)">
                    <path d="M297.253818,0.900567273 L291.390545,22.8962909 C290.168727,27.4786909 292.917818,32.2445091 297.498182,33.4664727 L319.424,39.3319273 C320.034909,36.9490909 318.935273,34.4440727 316.736,33.3442909 L304.888727,27.4786909 C301.773091,26.0123636 299.940364,22.7741091 300.245818,19.4136727 L301.162182,6.39949091 C301.345455,3.83332364 299.696,1.51156364 297.253818,0.900567273 Z" id="Path" fill="#F5BC18"></path>
                    <path d="M303.483636,22.8962909 C304.277818,24.3015273 305.559273,25.3402182 306.964364,25.8289455 C307.330909,25.9511273 307.758545,25.9511273 308.125091,25.7067636 L314.171636,22.2241455 C316.491636,20.88 317.285818,17.8250182 315.819636,15.5032727 C314.416,13.3037091 311.483636,12.6926982 309.285818,14.0369455 L303.361455,17.4584727 C302.994909,17.6417455 302.750545,18.0082909 302.689455,18.4360727 C302.384,19.9024 302.628364,21.4909091 303.483636,22.8962909 Z" id="Path" fill="#F5BC18"></path>
                    <path d="M256.333091,22.3463273 L278.32,28.2117818 C282.900364,29.4338909 287.665455,26.6843636 288.885818,22.1019636 L294.749091,0.167316364 C292.368,-0.443675636 289.863273,0.656101818 288.763636,2.85568 L282.900364,14.7089455 C281.435636,17.8250182 278.197818,19.6578909 274.839273,19.3524364 L261.829818,18.4359273 C259.264,18.3137455 256.944,19.9024 256.333091,22.3463273 Z" id="Path" fill="#40C1EF"></path>
                    <path d="M278.321455,16.1749818 C279.725091,15.3806545 280.763636,14.0976 281.252364,12.69232 C281.374545,12.3257164 281.374545,11.8980218 281.130182,11.5314327 L277.649455,5.48261818 C276.305455,3.16084364 273.250909,2.36654545 270.930909,3.83293091 C268.731636,5.23821091 268.120727,8.17098182 269.464727,10.3705455 L272.884364,16.2971636 C273.067636,16.6637091 273.434182,16.9082182 273.861818,16.9693091 C275.328,17.2136727 276.916364,16.9693091 278.321455,16.1749818 Z" id="Path" fill="#40C1EF"></path>
                    <path d="M277.829818,63.0997818 L283.693091,41.104 C284.914909,36.5216 282.165818,31.7557818 277.585455,30.5338182 L255.659636,24.6683636 C255.048727,27.0512 256.148364,29.5562182 258.346182,30.656 L270.194909,36.5216 C273.310545,37.9879273 275.141818,41.2261818 274.836364,44.5866182 L273.921455,57.6007273 C273.738182,60.1669818 275.386182,62.4887273 277.829818,63.0997818 Z" id="Path" fill="#8FC640"></path>
                    <path d="M271.601455,41.1045818 C270.807273,39.6993455 269.524364,38.6606545 268.119273,38.1719273 C267.752727,38.0497455 267.325091,38.0497455 266.958545,38.2941091 L260.913455,41.7767273 C258.592,43.1208727 257.797818,46.1758545 259.264,48.4976 C260.669091,50.6973091 263.6,51.3082182 265.799273,49.9640727 L271.723636,46.5425455 C272.090182,46.3591273 272.334545,45.9925818 272.395636,45.5649455 C272.699636,44.0984727 272.456727,42.5099636 271.601455,41.1045818 Z" id="Path" fill="#8FC640"></path>
                    <path d="M318.752,41.6536727 L296.765091,35.7882182 C292.184727,34.5662545 287.421091,37.3156364 286.199273,41.8980364 L280.336,63.8327273 C282.718545,64.4437818 285.221818,63.3438545 286.321455,61.1442909 L292.184727,49.2910545 C293.650909,46.1749818 296.887273,44.3421091 300.245818,44.6475636 L313.255273,45.5640727 C315.821091,45.6862545 318.141091,44.0977455 318.752,41.6536727 Z" id="Path" fill="#F15A52"></path>
                    <path d="M296.765091,47.8253091 C295.36,48.6196364 294.322909,49.9026909 293.834182,51.3079273 C293.712,51.6746182 293.712,52.1022545 293.956364,52.4688 L297.437091,58.5176727 C298.781091,60.8394182 301.834182,61.6337455 304.155636,60.1674182 C306.354909,58.7620364 306.964364,55.8293818 305.621818,53.6298182 L302.200727,47.7031273 C302.017455,47.3365818 301.650909,47.0922182 301.223273,47.0311273 C299.758545,46.7866182 298.170182,47.0309818 296.765091,47.8253091 Z" id="Path" fill="#F15A52"></path>
                    <path d="M78.4224,18.4353455 C81.2929455,21.1847273 82.7588364,25.3394909 82.7588364,30.7773091 L82.7588364,51.6122182 C82.7588364,52.0398545 82.3922909,52.4065455 81.9648,52.4065455 L74.6968727,52.4065455 C74.2693818,52.4065455 73.9028364,52.0398545 73.9028364,51.6122182 L73.9028364,31.9381818 C73.9028364,28.6388364 73.1089455,26.1338182 71.5819636,24.4840727 C70.0551273,22.8344727 67.7953455,21.9790545 64.9248,21.9790545 C61.6878545,21.9790545 59.1226182,22.9566545 57.2292364,24.9118545 C55.336,26.8670545 54.4197818,29.6775273 54.4197818,33.3435636 L54.4197818,51.6122182 C54.4197818,52.0398545 54.0533818,52.4065455 53.6258909,52.4065455 L46.4189091,52.4065455 C45.9914182,52.4065455 45.6250182,52.0398545 45.6250182,51.6122182 L45.6250182,17.2133818 C45.6250182,15.136 48.1290182,14.0362182 49.656,15.4414545 L54.0533818,19.5351273 C55.5191273,17.7632 57.3514182,16.4801455 59.5501091,15.5636364 C61.7489455,14.6471273 64.2529455,14.2194909 67.0624,14.2194909 C71.7041455,14.2805818 75.5518545,15.6247273 78.4224,18.4353455 Z" id="Path" fill="#44197e"></path>
                    <path d="M99.6754909,50.3902545 C96.5605818,48.7405091 94.1175273,46.4187636 92.4074182,43.4859636 C90.6363636,40.5531636 89.7812364,37.1927273 89.7812364,33.4657455 C89.7812364,29.7386182 90.6363636,26.4392727 92.4074182,23.5066182 C94.1786182,20.5738182 96.5605818,18.3131636 99.6144,16.6634182 C102.668073,15.0138182 106.210473,14.2194909 110.180364,14.2194909 C113.906036,14.2194909 117.142982,14.9527273 119.952436,16.4801455 C122.517673,17.8853818 124.533091,19.7794909 125.937891,22.2845091 C126.121018,22.6512 125.998836,23.1399273 125.632436,23.3232 L120.135709,26.5003636 C119.769164,26.6836364 119.341673,26.6225455 119.097455,26.256 C118.059055,24.7896727 116.837673,23.6898909 115.432873,22.9566545 C113.783855,22.1012364 112.012655,21.6736 110.119273,21.6736 C106.821236,21.6736 104.072873,22.7733818 101.935273,24.9118545 C99.7976727,27.0503273 98.6981818,29.9218909 98.6981818,33.4657455 C98.6981818,37.0705455 99.7976727,39.8811636 101.935273,42.0196364 C104.072873,44.1581091 106.821236,45.2578909 110.180364,45.2578909 C112.134836,45.2578909 113.906036,44.8301091 115.493964,43.9748364 C116.898618,43.1805091 118.120145,42.0807273 119.1584,40.6754909 C119.402764,40.3698909 119.830255,40.2477091 120.1968,40.4309818 L125.632436,43.6081455 C125.998836,43.8526545 126.121018,44.2802909 125.937891,44.7079273 C124.472,47.2130909 122.517673,49.1682909 119.891345,50.5735273 C117.081891,52.1009455 113.844945,52.8952727 110.180364,52.8952727 C106.271564,52.8952727 102.790255,52.0398545 99.6754909,50.3902545 Z" id="Path" fill="#44197e"></path>
                    <path d="M140.165527,50.3902545 C137.111709,48.7405091 134.729891,46.4187636 133.019782,43.4859636 C131.309673,40.5533091 130.454545,37.1927273 130.454545,33.4657455 C130.454545,29.7386182 131.309673,26.4392727 133.019782,23.5066182 C134.729891,20.5738182 137.111709,18.3131636 140.165527,16.6634182 C143.219345,15.0138182 146.64,14.2194909 150.487273,14.2194909 C154.334545,14.2194909 157.816727,15.0138182 160.869818,16.6634182 C163.924364,18.3131636 166.305455,20.5738182 168.016,23.5066182 C169.726545,26.4392727 170.580364,29.7386182 170.580364,33.4657455 C170.580364,37.1927273 169.726545,40.4920727 168.016,43.4859636 C166.305455,46.4187636 163.924364,48.7405091 160.869818,50.3902545 C157.816727,52.0398545 154.334545,52.8341818 150.487273,52.8341818 C146.64,52.8952727 143.219345,52.0398545 140.165527,50.3902545 Z M158.488727,42.0807273 C160.625455,39.9422545 161.664,37.0705455 161.664,33.5268364 C161.664,29.9831273 160.625455,27.1725091 158.488727,24.9729455 C156.350545,22.8344727 153.662545,21.7346909 150.426182,21.7346909 C147.189818,21.7346909 144.501818,22.8344727 142.425309,24.9729455 C140.3488,27.1114182 139.3104,29.9831273 139.3104,33.5268364 C139.3104,37.0705455 140.3488,39.8811636 142.425309,42.0807273 C144.501818,44.2192 147.189818,45.3189818 150.426182,45.3189818 C153.723636,45.3189818 156.411636,44.2192 158.488727,42.0807273 Z" id="Shape" fill="#44197e"></path>
                    <path d="M185.669818,52.4071273 C186.097455,52.4071273 186.464,52.0405818 186.464,51.6128 L186.464,30.3504 L186.464,29.8004364 C186.464,27.1732364 187.258182,25.3402182 188.845091,23.9349818 C190.433455,22.5296 192.388364,21.7965091 195.502545,21.7965091 C195.502545,21.7965091 196.968727,21.7965091 198.557091,21.9797818 C199.045818,22.0408727 199.412364,21.6741818 199.412364,21.1854545 L199.412364,15.5032727 C199.412364,15.1365818 199.106909,14.7700364 198.740364,14.7089455 C197.274182,14.4645818 195.502545,14.2813091 193.915636,14.2813091 C188.541091,14.2813091 184.936727,15.6254545 182.005818,18.2526545 C179.073455,20.9410909 177.607273,24.9124364 177.607273,30.2891636 L177.607273,51.6128 C177.607273,52.0405818 177.973818,52.4071273 178.401455,52.4071273 L185.669818,52.4071273 Z" id="Path" fill="#44197e"></path>
                    <path d="M36.0955636,23.5682909 C34.4464,20.6354909 32.1866182,18.3137455 29.3160727,16.7252364 C26.4456727,15.0754909 23.1474909,14.2813091 19.4830545,14.2813091 C15.7573818,14.2813091 12.3982836,15.0754909 9.46667636,16.7252364 C6.47397818,18.3748364 4.21419636,20.6967273 2.50408727,23.6293818 C0.855057455,26.5621818 0,29.8615273 0,33.5275636 C0,37.2545455 0.855057455,40.5538909 2.56516364,43.5477818 C4.27527273,46.4805818 6.71828364,48.8023273 9.89419636,50.4519273 C13.0701236,52.1016727 16.6736,52.896 20.8266182,52.896 C24.0637091,52.896 26.9953455,52.4071273 29.5604364,51.3684364 C31.9424,50.4519273 33.8967273,49.0466909 35.5458909,47.2749091 C35.7901091,46.9693091 35.7901091,46.5416727 35.5458909,46.2360727 L31.8202182,41.9591273 C31.5149091,41.6536727 31.0261818,41.5925818 30.7208727,41.8980364 C28.1557818,44.2810182 24.9186909,45.4418909 21.0709818,45.4418909 C17.8340364,45.4418909 15.0856727,44.6475636 12.9479709,42.9979636 C10.7492509,41.3482182 9.4056,39.1486545 8.91700364,36.3991273 L37.3169455,36.3991273 C37.9888,36.3991273 38.5384727,35.9104 38.5384727,35.2382545 C38.5995636,34.6273455 38.5995636,34.1995636 38.5995636,33.7719273 C38.5384727,29.8615273 37.7445818,26.5010909 36.0955636,23.5682909 Z M12.3372073,23.8128 C14.2916218,22.1630545 16.6736,21.3076364 19.4830545,21.3076364 C22.3536,21.3076364 24.7355636,22.1630545 26.6898909,23.8738909 C28.4,25.3402182 29.4993455,27.2343273 29.9879273,29.4949818 L8.91700364,29.4949818 C9.46667636,27.1732364 10.5660218,25.2791273 12.3372073,23.8128 Z" id="Shape" fill="#44197e"></path>
                    <path d="M228.727273,52.4072727 L235.262545,52.4072727 C235.688727,52.4072727 236.055273,52.0405818 236.055273,51.6129455 L236.055273,30.2893091 C236.055273,24.9125818 234.590545,20.88 231.658182,18.2528 C228.727273,15.5643636 223.719273,14.0980364 218.161455,14.0980364 C214.618182,14.0980364 212.359273,14.3424 209.915636,14.7089455 C209.549091,14.7700364 209.243636,15.1367273 209.243636,15.5032727 L209.243636,21.1243636 C209.243636,21.6132364 209.671273,21.9797818 210.16,21.9186909 C213.579636,21.4299636 221.214545,20.5134545 224.878545,23.6906182 C226.466909,25.0958545 227.261091,27.1121455 227.261091,29.7393455 L227.261091,30.2893091 L217.489455,30.2893091 C212.053818,30.2893091 208.082909,31.328 205.579636,33.3442909 C203.074909,35.4216727 201.792,38.1099636 201.792,41.5316364 C201.792,43.6701091 202.341818,45.6251636 203.502545,47.336 C204.663273,49.0468364 206.312727,50.3909818 208.388364,51.3685818 C210.526545,52.3461818 212.968727,52.8349091 215.778909,52.8349091 C219.320727,52.8349091 224.450909,51.4907636 227.810909,48.0692364 L227.810909,51.5518545 C227.933091,52.0405818 228.299636,52.4072727 228.727273,52.4072727 Z M227.261091,42.0814545 C225.611636,44.6475636 221.031273,46.4805818 217.733818,46.4805818 C215.473455,46.4805818 213.701818,45.9918545 212.420364,45.0753455 C211.137455,44.1588364 210.526545,42.8757818 210.526545,41.2871273 C210.526545,37.9266909 213.090909,36.2770909 218.161455,36.2770909 L227.261091,36.2770909 L227.261091,42.0814545 Z" id="Shape" fill="#44197e"></path>
                </g>
            </g>
        </g>
    </g>
</svg>